<svg style="display: none;" id="icons" xmlns="http://www.w3.org/2000/svg"><symbol id="icons-add" viewBox="0 0 32 32" xmlns:xlink="http://www.w3.org/1999/xlink"><path d="M26.287 13.393h-7.78v-7.78h-5.194v7.78h-7.78v5.194h7.78v7.78h5.194v-7.78h7.78z"/></symbol><symbol id="icons-close" viewBox="0 0 32 32" xmlns:xlink="http://www.w3.org/1999/xlink"><path d="M17.806 16.02l9.73-9.728-1.869-1.869-9.73 9.73-9.509-9.508-1.944 1.813 9.508 9.508-9.614 9.614 1.869 1.867 9.615-9.612 9.741 9.741 1.942-1.812z"/></symbol><symbol id="icons-checkbox" viewBox="0 0 15 15" xmlns:xlink="http://www.w3.org/1999/xlink"><g id="Page-1-9877eb05-8291-4685-bf2b-ebbb5c414267"><g id="Desktop-v02-fcc7f9aa-146b-44e8-86fb-ba06628ed38e" transform="translate(-1153 -68)"><path d="M1157.379 78.5l2.121 2.121 8.5-8.5V82a1 1 0 0 1-1 1h-13a1 1 0 0 1-1-1V69a1 1 0 0 1 1-1h13c.245 0 .47.088.644.235l-8.144 8.144-3-3-2.121 2.121 3 3z" id="Combined-Shape-9fba7367-5de3-4066-8f7b-4886c140f5da"/></g></g></symbol><symbol id="icons-menu" viewBox="0 0 32 32" xmlns:xlink="http://www.w3.org/1999/xlink"><path d="M7.539 10.424V5.231h16.766v5.193H7.539zM7.539 18.612v-5.194h16.766v5.194H7.539zM7.539 26.799v-5.194h16.766v5.194H7.539z"/></symbol></svg>
